<svg width="21" height="14" viewBox="0 0 21 14" fill="none" xmlns="http://www.w3.org/2000/svg">
<path d="M13.3636 6.99999C13.3636 7.84386 13.0284 8.65317 12.4317 9.24988C11.835 9.84659 11.0257 10.1818 10.1818 10.1818C9.33795 10.1818 8.52864 9.84659 7.93193 9.24988C7.33523 8.65317 7 7.84386 7 6.99999C7 6.15612 7.33523 5.34682 7.93193 4.75011C8.52864 4.1534 9.33795 3.81818 10.1818 3.81818C11.0257 3.81818 11.835 4.1534 12.4317 4.75011C13.0284 5.34682 13.3636 6.15612 13.3636 6.99999Z" fill="#D6D6D6" fill-opacity="0.87"/>
<path d="M0 7C0 7 3.81818 0 10.1818 0C16.5455 0 20.3636 7 20.3636 7C20.3636 7 16.5455 14 10.1818 14C3.81818 14 0 7 0 7ZM10.1818 11.4545C11.3632 11.4545 12.4963 10.9852 13.3317 10.1498C14.167 9.31445 14.6364 8.18142 14.6364 7C14.6364 5.81858 14.167 4.68555 13.3317 3.85016C12.4963 3.01477 11.3632 2.54545 10.1818 2.54545C9.0004 2.54545 7.86737 3.01477 7.03198 3.85016C6.19659 4.68555 5.72727 5.81858 5.72727 7C5.72727 8.18142 6.19659 9.31445 7.03198 10.1498C7.86737 10.9852 9.0004 11.4545 10.1818 11.4545Z" fill="#D6D6D6" fill-opacity="0.87"/>
</svg>
